<svg width="220" height="220" viewBox="0 0 220 220" fill="none" xmlns="http://www.w3.org/2000/svg">
<g clip-path="url(#clip0_230_251)">
<rect width="220" height="220" rx="110" fill="white"/>
<path d="M188.007 156.125C187.406 156.299 185.785 156.767 183.186 157.453C180.587 158.139 177.043 158.708 172.597 159.081C168.151 159.455 163.746 159.296 159.383 158.605C150.012 157.019 142.72 152.946 137.541 146.505C133.793 141.863 130.96 136.111 128.965 129.206C128.461 127.465 128.018 125.706 127.618 123.87C118.625 125.167 108.461 125.567 97.1275 125.068C96.1602 128.925 95.1409 132.603 94.0268 136.178C89.7294 148.999 82.567 156.859 72.5396 159.756C70.9184 160.224 69.3052 160.495 67.6574 160.646C61.2886 161.12 55.7378 159.471 51.0302 155.561C47.0284 152.294 44.2863 148.207 42.8811 143.343C41.5973 138.9 41.6705 134.65 43.1008 130.594C45.3649 124.019 50.5286 119.6 58.4545 117.31C62.6575 116.096 68.0816 115.504 74.6064 115.571C77.5513 115.631 82.7885 115.744 90.2327 116.065L93.2465 101.728C94.2524 96.428 95.3704 91.2908 96.5057 86.2137C98.9792 74.9599 101.829 66.1346 105.038 59.6777C108.93 51.9825 113.929 47.2201 119.994 45.4679C126.299 43.6464 130.487 46.2095 132.499 53.1746C133.141 55.3962 133.587 58.0649 133.819 61.1205C134.106 65.2662 134.143 71.6963 133.963 80.5309L133.866 91.2282C133.797 99.7705 134.17 107.144 134.927 113.366L136.248 112.984C142.313 111.232 147.482 108.633 151.798 105.109L157.399 111.883C152.14 116.199 145.9 119.369 138.814 121.416L136.335 122.067C136.614 123.483 137.03 124.924 137.412 126.245C139.078 132.009 141.358 136.75 144.296 140.39C152.517 150.831 166.346 153.211 185.801 147.59C189.644 146.479 193.717 145.042 197.859 143.39C203.57 141.09 212.358 137.054 224.325 131.19C229.734 128.521 235.143 125.852 240.647 123.286C250.687 118.629 259.571 115.151 267.316 112.913C269.478 112.289 272.515 111.541 276.427 110.671C280.262 109.759 285.051 109.221 290.656 109.032L290.914 117.806C284.398 117.997 277.388 119.176 269.822 121.362C266.46 122.334 262.549 123.659 258.21 125.303C250.955 128.114 240.959 132.694 228.16 139.059C223.377 141.417 218.636 143.698 213.938 145.901C203.796 150.653 195.152 154.061 188.007 156.125ZM126.21 115.169C125.268 107.179 124.925 95.6331 125.206 80.3937C125.431 72.3918 125.396 66.4167 125.144 62.391C124.955 59.713 124.631 57.4647 124.128 55.7234C123.729 54.3424 123.221 53.7086 122.603 53.8221C120.261 54.4986 118.188 55.8784 116.4 58.0214C113.157 61.8857 110.334 68.1011 107.887 76.7449C106.111 82.9829 104.069 91.9003 101.82 103.48C100.931 107.835 100.025 112.13 99.102 116.365C109.851 116.643 118.847 116.255 126.21 115.169ZM70.0335 151.307C75.0172 149.867 79.0681 146.55 82.2716 141.2C84.2623 137.958 86.2463 132.44 88.1808 124.725L87.9233 124.735C83.2264 124.465 78.8992 124.349 74.9069 124.267C69.0946 124.189 64.4858 124.675 61.0633 125.664C55.8568 127.233 52.5852 129.87 51.351 133.48C50.5252 135.8 50.5239 138.273 51.2699 140.854C51.6515 142.175 52.2307 143.504 52.9726 144.721C55.0169 147.969 57.779 150.098 61.2336 151.247C63.9837 152.209 66.9712 152.192 70.0335 151.307Z" fill="black"/>
</g>
<defs>
<clipPath id="clip0_230_251">
<rect width="220" height="220" rx="110" fill="white"/>
</clipPath>
</defs>
</svg>
